<?xml version="1.0" encoding="iso-8859-1"?>
<!-- Generator: Adobe Illustrator 19.0.0, SVG Export Plug-In . SVG Version: 6.00 Build 0)  -->
<svg version="1.1" id="Layer_1" xmlns="http://www.w3.org/2000/svg" xmlns:xlink="http://www.w3.org/1999/xlink" x="0px" y="0px"
	 viewBox="0 0 512 512" style="enable-background:new 0 0 512 512;" xml:space="preserve">
<g>
	<g>
		<path d="M490.667,469.333h-21.333v-131.68c24.812-8.82,42.667-32.548,42.667-60.32c0-18.881-8.255-35.891-21.333-47.623V69.227
			C490.667,30.991,459.675,0,421.44,0H90.56C52.325,0,21.333,30.991,21.333,69.227v160.477C8.255,241.436,0,258.446,0,277.327
			c0,27.773,17.854,51.5,42.667,60.32v131.686H21.333C9.551,469.333,0,478.885,0,490.667S9.551,512,21.333,512h85.333
			c11.782,0,21.333-9.551,21.333-21.333s-9.551-21.333-21.333-21.333H85.333V341.327h85.333V384v106.667
			c0,11.782,9.551,21.333,21.333,21.333s21.333-9.551,21.333-21.333v-85.333h85.333v85.333c0,11.782,9.551,21.333,21.333,21.333
			s21.333-9.551,21.333-21.333V384v-42.667h85.333v128h-21.333c-11.782,0-21.333,9.551-21.333,21.333S393.551,512,405.333,512
			h85.333c11.782,0,21.333-9.551,21.333-21.333S502.449,469.333,490.667,469.333z M64,69.227c0-14.671,11.889-26.56,26.56-26.56
			h330.88c14.671,0,26.56,11.889,26.56,26.56v144.107h-42.667V106.667c0-11.782-9.551-21.333-21.333-21.333H128
			c-11.782,0-21.333,9.551-21.333,21.333v106.66H64V69.227z M336.276,213.333c-10.201-25.022-34.757-42.667-63.444-42.667h-33.664
			c-28.685,0-53.239,17.642-63.442,42.66h-26.393V128h213.333v85.333H336.276z M64,298.66c-11.685,0-21.333-9.649-21.333-21.333
			c0-11.642,9.581-21.258,21.209-21.327H128c0.043,0,0.084-0.006,0.127-0.006h42.54v42.667H64z M213.333,319.994v-80.522
			c0.05-0.279,0.05-0.279,0.077-0.484c0.118-0.875,0.118-0.875,0.268-2.234c0.078-0.794,0.111-1.582,0.103-2.361
			c2.242-11.984,12.753-21.06,25.387-21.06h33.664c12.635,0,23.147,9.077,25.387,21.063c-0.009,0.789,0.025,1.587,0.105,2.393
			c0.111,1.025,0.111,1.025,0.21,1.781c0.029,0.222,0.029,0.222,0.055,0.414c0.071,0.53,0.077,73.648,0.077,80.502V320v42.667
			h-85.333V319.994z M341.333,256H384h64c11.685,0,21.333,9.649,21.333,21.333c0,11.685-9.649,21.333-21.333,21.333H341.333V256z"/>
	</g>
</g>
<g>
</g>
<g>
</g>
<g>
</g>
<g>
</g>
<g>
</g>
<g>
</g>
<g>
</g>
<g>
</g>
<g>
</g>
<g>
</g>
<g>
</g>
<g>
</g>
<g>
</g>
<g>
</g>
<g>
</g>
</svg>
